<svg version="1.1" xmlns="http://www.w3.org/2000/svg" xmlns:xlink="http://www.w3.org/1999/xlink" width="86.6671" height="86.70423" viewBox="0,0,86.6671,86.70423"><g transform="translate(-197.15568,-137.15568)"><g data-paper-data="{&quot;isPaintingLayer&quot;:true}" fill="none" fill-rule="nonzero" stroke-linecap="butt" stroke-linejoin="miter" stroke-miterlimit="10" stroke-dasharray="" stroke-dashoffset="0" style="mix-blend-mode: normal"><g><path d="M240,144.65569c19.52011,0 35.34431,15.82417 35.34431,35.34431c0,19.52011 -15.82417,35.34431 -35.34431,35.34431c-19.52011,0 -35.34431,-15.82417 -35.34431,-35.34431c0,-19.52011 15.82417,-35.34431 35.34431,-35.34431z" stroke="#aa1028" stroke-width="15"/><path d="M240,144.65569c19.52011,0 35.34431,15.82417 35.34431,35.34431c0,19.52011 -15.82417,35.34431 -35.34431,35.34431c-19.52011,0 -35.34431,-15.82417 -35.34431,-35.34431c0,-19.52011 15.82417,-35.34431 35.34431,-35.34431z" stroke="#ffffff" stroke-width="7.5"/></g><path d="M275.05358,223.85992v-8.76921h8.76921v8.76921z" stroke="none" stroke-width="0"/><g stroke="#e6e6e6" stroke-width="2.5"><g><path d="M240.18645,163.34452c4.54779,-4.54779 11.92119,-4.54777 16.46897,0.00001c4.54779,4.54779 4.54779,11.9212 0.00001,16.46898c-4.54779,4.54779 -11.92121,4.54778 -16.46899,0c-4.54779,-4.54779 -4.54778,-11.92121 0,-16.46899z"/><path d="M240.18645,163.34452c4.54779,-4.54779 11.92119,-4.54777 16.46897,0.00001c4.54779,4.54779 4.54779,11.9212 0.00001,16.46898c-4.54779,4.54779 -11.92121,4.54778 -16.46899,0c-4.54779,-4.54779 -4.54778,-11.92121 0,-16.46899z"/><path d="M223.34454,180.18647c4.54779,-4.54779 11.92119,-4.54777 16.46897,0.00001c4.54779,4.54779 4.54779,11.92119 0.00001,16.46897c-4.54779,4.54779 -11.9212,4.54778 -16.46898,0c-4.54779,-4.54779 -4.54778,-11.9212 0,-16.46898z"/><path d="M223.34454,180.18647c4.54779,-4.54779 11.92119,-4.54777 16.46897,0.00001c4.54779,4.54779 4.54779,11.92119 0.00001,16.46897c-4.54779,4.54779 -11.9212,4.54778 -16.46898,0c-4.54779,-4.54779 -4.54778,-11.9212 0,-16.46898z"/></g><g><path d="M256.65545,180.18652c4.54779,4.54779 4.54777,11.92119 -0.00001,16.46897c-4.54779,4.54779 -11.9212,4.54779 -16.46897,0.00001c-4.54779,-4.54779 -4.54778,-11.9212 0,-16.46898c4.54779,-4.54779 11.9212,-4.54778 16.46898,0z"/><path d="M256.65545,180.18652c4.54779,4.54779 4.54777,11.92119 -0.00001,16.46897c-4.54779,4.54779 -11.9212,4.54779 -16.46897,0.00001c-4.54779,-4.54779 -4.54778,-11.9212 0,-16.46898c4.54779,-4.54779 11.9212,-4.54778 16.46898,0z"/><path d="M239.81351,163.34458c4.54779,4.54779 4.54777,11.9212 -0.00001,16.46898c-4.54779,4.54779 -11.92119,4.54779 -16.46897,0.00001c-4.54779,-4.54779 -4.54778,-11.92121 0,-16.46899c4.54779,-4.54779 11.9212,-4.54778 16.46898,0z"/><path d="M239.81351,163.34458c4.54779,4.54779 4.54777,11.9212 -0.00001,16.46898c-4.54779,4.54779 -11.92119,4.54779 -16.46897,0.00001c-4.54779,-4.54779 -4.54778,-11.92121 0,-16.46899c4.54779,-4.54779 11.9212,-4.54778 16.46898,0z"/></g></g><g stroke="#ffffff" stroke-width="2.5"><g><path d="M251.90903,168.35466c6.43155,0 11.64532,5.21381 11.64532,11.64534c0,6.43155 -5.2138,11.64533 -11.64532,11.64533c-6.43154,0 -11.64533,-5.21381 -11.64533,-11.64533c0,-6.43154 5.2138,-11.64534 11.64533,-11.64534z"/><path d="M251.90903,168.35466c6.43155,0 11.64532,5.21381 11.64532,11.64534c0,6.43155 -5.2138,11.64533 -11.64532,11.64533c-6.43154,0 -11.64533,-5.21381 -11.64533,-11.64533c0,-6.43154 5.2138,-11.64534 11.64533,-11.64534z"/><path d="M228.09093,168.35466c6.43155,0 11.64531,5.21381 11.64531,11.64534c0,6.43155 -5.21379,11.64533 -11.64531,11.64533c-6.43154,0 -11.64534,-5.21381 -11.64534,-11.64533c0,-6.43154 5.2138,-11.64534 11.64534,-11.64534z"/><path d="M228.09093,168.35466c6.43155,0 11.64531,5.21381 11.64531,11.64534c0,6.43155 -5.21379,11.64533 -11.64531,11.64533c-6.43154,0 -11.64534,-5.21381 -11.64534,-11.64533c0,-6.43154 5.2138,-11.64534 11.64534,-11.64534z"/></g><g><path d="M251.6453,191.90909c0,6.43155 -5.2138,11.64531 -11.64533,11.64531c-6.43154,0 -11.64532,-5.21379 -11.64532,-11.64531c0,-6.43154 5.2138,-11.64533 11.64532,-11.64533c6.43155,0 11.64533,5.21381 11.64533,11.64533z"/><path d="M251.6453,191.90909c0,6.43155 -5.2138,11.64531 -11.64533,11.64531c-6.43154,0 -11.64532,-5.21379 -11.64532,-11.64531c0,-6.43154 5.2138,-11.64533 11.64532,-11.64533c6.43155,0 11.64533,5.21381 11.64533,11.64533z"/><path d="M251.6453,168.09096c0,6.43155 -5.21381,11.64531 -11.64533,11.64531c-6.43154,0 -11.64533,-5.21378 -11.64533,-11.64531c0,-6.43154 5.2138,-11.64534 11.64533,-11.64534c6.43155,0 11.64533,5.21381 11.64533,11.64534z"/><path d="M251.6453,168.09096c0,6.43155 -5.21381,11.64531 -11.64533,11.64531c-6.43154,0 -11.64533,-5.21378 -11.64533,-11.64531c0,-6.43154 5.2138,-11.64534 11.64533,-11.64534c6.43155,0 11.64533,5.21381 11.64533,11.64534z"/></g></g></g></g></svg>