<?xml version="1.0" encoding="UTF-8" standalone="no"?>
<svg
   version="1.1"
   width="71.667"
   height="70.704002"
   viewBox="0 0 71.667001 70.704001"
   id="svg58"
   sodipodi:docname="icon-prex.svg"
   inkscape:version="1.2.2 (732a01da63, 2022-12-09)"
   xmlns:inkscape="http://www.inkscape.org/namespaces/inkscape"
   xmlns:sodipodi="http://sodipodi.sourceforge.net/DTD/sodipodi-0.dtd"
   xmlns="http://www.w3.org/2000/svg"
   xmlns:svg="http://www.w3.org/2000/svg">
  <defs
     id="defs62" />
  <sodipodi:namedview
     id="namedview60"
     pagecolor="#000000"
     bordercolor="#000000"
     borderopacity="0.25"
     inkscape:showpageshadow="2"
     inkscape:pageopacity="0"
     inkscape:pagecheckerboard="0"
     inkscape:deskcolor="#d1d1d1"
     showgrid="false"
     inkscape:zoom="3.4227367"
     inkscape:cx="15.192521"
     inkscape:cy="34.621418"
     inkscape:window-width="1366"
     inkscape:window-height="705"
     inkscape:window-x="-8"
     inkscape:window-y="-8"
     inkscape:window-maximized="1"
     inkscape:current-layer="svg58" />
  <path
     d="m 27.34431,-8 c 19.52011,0 35.34431,15.82417 35.34431,35.34431 0,19.52011 -15.82417,35.34431 -35.34431,35.34431 C 7.8242,62.68862 -8,46.86445 -8,27.34431 -8,-106.9962 -72.22873,-8 27.34431,-8 Z"
     stroke="#aa1028"
     stroke-width="15"
     id="path2"
     style="mix-blend-mode:normal;fill:#ffffff;fill-opacity:1;fill-rule:nonzero;stroke:#bbd85e;stroke-linecap:butt;stroke-linejoin:miter;stroke-miterlimit:10;stroke-dasharray:none;stroke-dashoffset:0;stroke-opacity:1;stroke-width:13"
     sodipodi:nodetypes="sssss" />
  <path
     d="m 27.29294,-12.740264 c 20.955285,0 37.942926,17.4552909 37.942926,38.987524 0,21.5322 -16.987609,38.987524 -37.942926,38.987524 -20.9552858,0 -37.942927,-17.455291 -37.942927,-38.987524 0,-90.500008 -107.529313,-38.987524 37.942927,-38.987524 z"
     stroke="#ffffff"
     stroke-width="7.5"
     id="path4"
     style="mix-blend-mode:normal;fill:none;fill-rule:nonzero;stroke:#449c3c;stroke-width:9.9;stroke-linecap:butt;stroke-linejoin:miter;stroke-miterlimit:10;stroke-dasharray:none;stroke-dashoffset:0;stroke-opacity:1"
     sodipodi:nodetypes="sssss" />
  <path
     d="m 62.39789,71.20423 v -8.76921 h 8.76921 v 8.76921 z"
     stroke="none"
     stroke-width="0"
     id="path8"
     style="mix-blend-mode:normal;fill:none;fill-rule:nonzero;stroke-linecap:butt;stroke-linejoin:miter;stroke-miterlimit:10;stroke-dasharray:none;stroke-dashoffset:0" />
  <path
     d="m 27.53076,10.68883 c 4.54779,-4.54779 11.92119,-4.54777 16.46897,1e-5 4.54779,4.54779 4.54779,11.9212 1e-5,16.46898 -4.54779,4.54779 -11.92121,4.54778 -16.46899,0 -4.54779,-4.54779 -4.54778,-11.92121 0,-16.46899 z"
     id="path10"
     style="mix-blend-mode:normal;fill:none;fill-rule:nonzero;stroke:#e6e6e6;stroke-width:2.5;stroke-linecap:butt;stroke-linejoin:miter;stroke-miterlimit:10;stroke-dasharray:none;stroke-dashoffset:0" />
  <path
     d="m 27.53076,10.68883 c 4.54779,-4.54779 11.92119,-4.54777 16.46897,1e-5 4.54779,4.54779 4.54779,11.9212 1e-5,16.46898 -4.54779,4.54779 -11.92121,4.54778 -16.46899,0 -4.54779,-4.54779 -4.54778,-11.92121 0,-16.46899 z"
     id="path12"
     style="mix-blend-mode:normal;fill:none;fill-rule:nonzero;stroke:#bbd85e;stroke-width:2.5;stroke-linecap:butt;stroke-linejoin:miter;stroke-miterlimit:10;stroke-dasharray:none;stroke-dashoffset:0;stroke-opacity:1" />
  <path
     d="m 10.68885,27.53078 c 4.54779,-4.54779 11.92119,-4.54777 16.46897,10e-6 4.54779,4.54779 4.54779,11.92119 10e-6,16.46897 -4.54779,4.54779 -11.9212,4.54778 -16.46898,0 -4.54779,-4.54779 -4.54778,-11.9212 0,-16.46898 z"
     id="path14"
     style="mix-blend-mode:normal;fill:none;fill-rule:nonzero;stroke:#e6e6e6;stroke-width:2.5;stroke-linecap:butt;stroke-linejoin:miter;stroke-miterlimit:10;stroke-dasharray:none;stroke-dashoffset:0" />
  <path
     d="m 10.68885,27.53078 c 4.54779,-4.54779 11.92119,-4.54777 16.46897,10e-6 4.54779,4.54779 4.54779,11.92119 10e-6,16.46897 -4.54779,4.54779 -11.9212,4.54778 -16.46898,0 -4.54779,-4.54779 -4.54778,-11.9212 0,-16.46898 z"
     id="path16"
     style="mix-blend-mode:normal;fill:none;fill-rule:nonzero;stroke:#bbd85e;stroke-width:2.5;stroke-linecap:butt;stroke-linejoin:miter;stroke-miterlimit:10;stroke-dasharray:none;stroke-dashoffset:0;stroke-opacity:1" />
  <path
     d="m 43.99976,27.53083 c 4.54779,4.54779 4.54777,11.92119 -1e-5,16.46897 -4.54779,4.54779 -11.9212,4.54779 -16.46897,10e-6 -4.54779,-4.54779 -4.54778,-11.9212 0,-16.46898 4.54779,-4.54779 11.9212,-4.54778 16.46898,0 z"
     id="path20"
     style="mix-blend-mode:normal;fill:none;fill-rule:nonzero;stroke:#e6e6e6;stroke-width:2.5;stroke-linecap:butt;stroke-linejoin:miter;stroke-miterlimit:10;stroke-dasharray:none;stroke-dashoffset:0" />
  <path
     d="m 43.99976,27.53083 c 4.54779,4.54779 4.54777,11.92119 -1e-5,16.46897 -4.54779,4.54779 -11.9212,4.54779 -16.46897,10e-6 -4.54779,-4.54779 -4.54778,-11.9212 0,-16.46898 4.54779,-4.54779 11.9212,-4.54778 16.46898,0 z"
     id="path22"
     style="mix-blend-mode:normal;fill:none;fill-rule:nonzero;stroke:#bbd85e;stroke-width:2.5;stroke-linecap:butt;stroke-linejoin:miter;stroke-miterlimit:10;stroke-dasharray:none;stroke-dashoffset:0;stroke-opacity:1" />
  <path
     d="m 27.15782,10.68889 c 4.54779,4.54779 4.54777,11.9212 -10e-6,16.46898 -4.54779,4.54779 -11.92119,4.54779 -16.46897,10e-6 -4.54779,-4.54779 -4.54778,-11.92121 0,-16.46899 4.54779,-4.54779 11.9212,-4.54778 16.46898,0 z"
     id="path24"
     style="mix-blend-mode:normal;fill:none;fill-rule:nonzero;stroke:#e6e6e6;stroke-width:2.5;stroke-linecap:butt;stroke-linejoin:miter;stroke-miterlimit:10;stroke-dasharray:none;stroke-dashoffset:0" />
  <path
     d="m 27.15782,10.68889 c 4.54779,4.54779 4.54777,11.9212 -10e-6,16.46898 -4.54779,4.54779 -11.92119,4.54779 -16.46897,10e-6 -4.54779,-4.54779 -4.54778,-11.92121 0,-16.46899 4.54779,-4.54779 11.9212,-4.54778 16.46898,0 z"
     id="path26"
     style="mix-blend-mode:normal;fill:none;fill-rule:nonzero;stroke:#bbd85e;stroke-width:2.5;stroke-linecap:butt;stroke-linejoin:miter;stroke-miterlimit:10;stroke-dasharray:none;stroke-dashoffset:0;stroke-opacity:1" />
  <path
     d="m 39.25334,15.69897 c 6.43155,0 11.64532,5.21381 11.64532,11.64534 0,6.43155 -5.2138,11.64533 -11.64532,11.64533 -6.43154,0 -11.64533,-5.21381 -11.64533,-11.64533 0,-6.43154 5.2138,-11.64534 11.64533,-11.64534 z"
     id="path32"
     style="mix-blend-mode:normal;fill:none;fill-rule:nonzero;stroke:#ffffff;stroke-width:2.5;stroke-linecap:butt;stroke-linejoin:miter;stroke-miterlimit:10;stroke-dasharray:none;stroke-dashoffset:0" />
  <path
     d="m 39.25334,15.69897 c 6.43155,0 11.64532,5.21381 11.64532,11.64534 0,6.43155 -5.2138,11.64533 -11.64532,11.64533 -6.43154,0 -11.64533,-5.21381 -11.64533,-11.64533 0,-6.43154 5.2138,-11.64534 11.64533,-11.64534 z"
     id="path34"
     style="mix-blend-mode:normal;fill:none;fill-rule:nonzero;stroke:#449c3c;stroke-width:2.5;stroke-linecap:butt;stroke-linejoin:miter;stroke-miterlimit:10;stroke-dasharray:none;stroke-dashoffset:0;stroke-opacity:1" />
  <path
     d="m 15.43524,15.69897 c 6.43155,0 11.64531,5.21381 11.64531,11.64534 0,6.43155 -5.21379,11.64533 -11.64531,11.64533 -6.43154,0 -11.64534,-5.21381 -11.64534,-11.64533 0,-6.43154 5.2138,-11.64534 11.64534,-11.64534 z"
     id="path36"
     style="mix-blend-mode:normal;fill:none;fill-rule:nonzero;stroke:#ffffff;stroke-width:2.5;stroke-linecap:butt;stroke-linejoin:miter;stroke-miterlimit:10;stroke-dasharray:none;stroke-dashoffset:0" />
  <path
     d="m 15.43524,15.69897 c 6.43155,0 11.64531,5.21381 11.64531,11.64534 0,6.43155 -5.21379,11.64533 -11.64531,11.64533 -6.43154,0 -11.64534,-5.21381 -11.64534,-11.64533 0,-6.43154 5.2138,-11.64534 11.64534,-11.64534 z"
     id="path38"
     style="mix-blend-mode:normal;fill:none;fill-rule:nonzero;stroke:#449c3c;stroke-width:2.5;stroke-linecap:butt;stroke-linejoin:miter;stroke-miterlimit:10;stroke-dasharray:none;stroke-dashoffset:0;stroke-opacity:1" />
  <path
     d="m 38.98961,39.2534 c 0,6.43155 -5.2138,11.64531 -11.64533,11.64531 -6.43154,0 -11.64532,-5.21379 -11.64532,-11.64531 0,-6.43154 5.2138,-11.64533 11.64532,-11.64533 6.43155,0 11.64533,5.21381 11.64533,11.64533 z"
     id="path42"
     style="mix-blend-mode:normal;fill:none;fill-rule:nonzero;stroke:#ffffff;stroke-width:2.5;stroke-linecap:butt;stroke-linejoin:miter;stroke-miterlimit:10;stroke-dasharray:none;stroke-dashoffset:0" />
  <path
     d="m 38.98961,39.2534 c 0,6.43155 -5.2138,11.64531 -11.64533,11.64531 -6.43154,0 -11.64532,-5.21379 -11.64532,-11.64531 0,-6.43154 5.2138,-11.64533 11.64532,-11.64533 6.43155,0 11.64533,5.21381 11.64533,11.64533 z"
     id="path44"
     style="mix-blend-mode:normal;fill:none;fill-rule:nonzero;stroke:#449c3c;stroke-width:2.5;stroke-linecap:butt;stroke-linejoin:miter;stroke-miterlimit:10;stroke-dasharray:none;stroke-dashoffset:0;stroke-opacity:1" />
  <path
     d="m 38.98961,15.43527 c 0,6.43155 -5.21381,11.64531 -11.64533,11.64531 -6.43154,0 -11.64533,-5.21378 -11.64533,-11.64531 0,-6.43154 5.2138,-11.64534 11.64533,-11.64534 6.43155,0 11.64533,5.21381 11.64533,11.64534 z"
     id="path46"
     style="mix-blend-mode:normal;fill:none;fill-rule:nonzero;stroke:#ffffff;stroke-width:2.5;stroke-linecap:butt;stroke-linejoin:miter;stroke-miterlimit:10;stroke-dasharray:none;stroke-dashoffset:0" />
  <path
     d="m 38.98961,15.43527 c 0,6.43155 -5.21381,11.64531 -11.64533,11.64531 -6.43154,0 -11.64533,-5.21378 -11.64533,-11.64531 0,-6.43154 5.2138,-11.64534 11.64533,-11.64534 6.43155,0 11.64533,5.21381 11.64533,11.64534 z"
     id="path48"
     style="mix-blend-mode:normal;fill:none;fill-rule:nonzero;stroke:#449c3c;stroke-width:2.5;stroke-linecap:butt;stroke-linejoin:miter;stroke-miterlimit:10;stroke-dasharray:none;stroke-dashoffset:0;stroke-opacity:1" />
</svg>
