<svg version="1.1" xmlns="http://www.w3.org/2000/svg" xmlns:xlink="http://www.w3.org/1999/xlink" width="85.26516" height="85.30311" viewBox="0,0,85.26516,85.30311"><g transform="translate(-198.55763,-138.55764)"><g data-paper-data="{&quot;isPaintingLayer&quot;:true}" fill-rule="nonzero" stroke-linecap="butt" stroke-linejoin="miter" stroke-miterlimit="10" stroke-dasharray="" stroke-dashoffset="0" style="mix-blend-mode: normal"><path d="M240.00004,144.80766c19.43621,0 35.1924,15.75616 35.1924,35.1924c0,19.43621 -15.75616,35.1924 -35.1924,35.1924c-19.43621,0 -35.1924,-15.75616 -35.1924,-35.1924c0,-19.43621 15.75616,-35.1924 35.1924,-35.1924z" fill="#ffffff" stroke="none" stroke-width="0"/><g fill="none"><path d="M240.00003,144.80765c19.43621,0 35.1924,15.75616 35.1924,35.1924c0,19.43621 -15.75616,35.1924 -35.1924,35.1924c-19.43621,0 -35.1924,-15.75616 -35.1924,-35.1924c0,-19.43621 15.75616,-35.1924 35.1924,-35.1924z" stroke="#6d2bd6" stroke-width="12.5"/><path d="M240.00003,144.80765c19.43621,0 35.1924,15.75616 35.1924,35.1924c0,19.43621 -15.75616,35.1924 -35.1924,35.1924c-19.43621,0 -35.1924,-15.75616 -35.1924,-35.1924c0,-19.43621 15.75616,-35.1924 35.1924,-35.1924z" stroke="#873cff" stroke-width="7.5"/></g><g fill="none" stroke="#6d2bd6" stroke-width="1.5"><g><path d="M240.20457,161.72871c4.989,-4.989 13.07775,-4.98898 18.06674,0.00001c4.989,4.989 4.989,13.07775 0.00001,18.06674c-4.989,4.989 -13.07776,4.98899 -18.06675,0c-4.989,-4.989 -4.98899,-13.07776 0,-18.06675z"/><path d="M240.20457,161.72871c4.989,-4.989 13.07775,-4.98898 18.06674,0.00001c4.989,4.989 4.989,13.07775 0.00001,18.06674c-4.989,4.989 -13.07776,4.98899 -18.06675,0c-4.989,-4.989 -4.98899,-13.07776 0,-18.06675z"/><path d="M221.72871,180.20461c4.989,-4.989 13.07775,-4.98898 18.06674,0.00001c4.989,4.989 4.989,13.07775 0.00001,18.06674c-4.989,4.989 -13.07776,4.98899 -18.06675,0c-4.989,-4.989 -4.98899,-13.07776 0,-18.06675z"/><path d="M221.72871,180.20461c4.989,-4.989 13.07775,-4.98898 18.06674,0.00001c4.989,4.989 4.989,13.07775 0.00001,18.06674c-4.989,4.989 -13.07776,4.98899 -18.06675,0c-4.989,-4.989 -4.98899,-13.07776 0,-18.06675z"/></g><g><path d="M258.27133,180.20466c4.989,4.989 4.98898,13.07775 -0.00001,18.06674c-4.989,4.989 -13.07775,4.989 -18.06674,0.00001c-4.989,-4.989 -4.98899,-13.07776 0,-18.06675c4.989,-4.989 13.07776,-4.98899 18.06675,0z"/><path d="M258.27133,180.20466c4.989,4.989 4.98898,13.07775 -0.00001,18.06674c-4.989,4.989 -13.07775,4.989 -18.06674,0.00001c-4.989,-4.989 -4.98899,-13.07776 0,-18.06675c4.989,-4.989 13.07776,-4.98899 18.06675,0z"/><path d="M239.79545,161.72877c4.989,4.989 4.98898,13.07775 -0.00001,18.06674c-4.989,4.989 -13.07775,4.989 -18.06674,0.00001c-4.989,-4.989 -4.98899,-13.07776 0,-18.06675c4.989,-4.989 13.07776,-4.98899 18.06675,0z"/><path d="M239.79545,161.72877c4.989,4.989 4.98898,13.07775 -0.00001,18.06674c-4.989,4.989 -13.07775,4.989 -18.06674,0.00001c-4.989,-4.989 -4.98899,-13.07776 0,-18.06675c4.989,-4.989 13.07776,-4.98899 18.06675,0z"/></g></g><g fill="none" stroke="#873cff" stroke-width="1.5"><path d="M253.06443,167.22492c7.05551,0 12.77511,5.71963 12.77511,12.77513c0,7.05551 -5.71962,12.77512 -12.77511,12.77512c-7.05551,0 -12.77512,-5.71963 -12.77512,-12.77512c0,-7.05551 5.71962,-12.77513 12.77512,-12.77513z"/><path d="M253.06443,167.22492c7.05551,0 12.77511,5.71963 12.77511,12.77513c0,7.05551 -5.71962,12.77512 -12.77511,12.77512c-7.05551,0 -12.77512,-5.71963 -12.77512,-12.77512c0,-7.05551 5.71962,-12.77513 12.77512,-12.77513z"/><path d="M226.93558,167.22492c7.05551,0 12.7751,5.71963 12.7751,12.77513c0,7.05551 -5.71961,12.77512 -12.7751,12.77512c-7.05551,0 -12.77513,-5.71963 -12.77513,-12.77512c0,-7.05551 5.71963,-12.77513 12.77513,-12.77513z"/><path d="M226.93558,167.22492c7.05551,0 12.7751,5.71963 12.7751,12.77513c0,7.05551 -5.71961,12.77512 -12.7751,12.77512c-7.05551,0 -12.77513,-5.71963 -12.77513,-12.77512c0,-7.05551 5.71963,-12.77513 12.77513,-12.77513z"/></g><g fill="none" stroke="#873cff" stroke-width="1.5"><path d="M252.77512,193.06452c0,7.05551 -5.71962,12.7751 -12.77512,12.7751c-7.05551,0 -12.77512,-5.71961 -12.77512,-12.7751c0,-7.05551 5.71963,-12.77512 12.77512,-12.77512c7.05551,0 12.77512,5.71963 12.77512,12.77512z"/><path d="M252.77512,193.06452c0,7.05551 -5.71962,12.7751 -12.77512,12.7751c-7.05551,0 -12.77512,-5.71961 -12.77512,-12.7751c0,-7.05551 5.71963,-12.77512 12.77512,-12.77512c7.05551,0 12.77512,5.71963 12.77512,12.77512z"/><path d="M252.77512,166.93563c0,7.05551 -5.71963,12.7751 -12.77512,12.7751c-7.05551,0 -12.77513,-5.71961 -12.77513,-12.7751c0,-7.05551 5.71963,-12.77513 12.77513,-12.77513c7.05551,0 12.77512,5.71963 12.77512,12.77513z"/><path d="M252.77512,166.93563c0,7.05551 -5.71963,12.7751 -12.77512,12.7751c-7.05551,0 -12.77513,-5.71961 -12.77513,-12.7751c0,-7.05551 5.71963,-12.77513 12.77513,-12.77513c7.05551,0 12.77512,5.71963 12.77512,12.77513z"/></g><g fill="none" stroke="#873cff" stroke-width="1.5"><g><path d="M253.06443,167.22492c7.05551,0 12.77511,5.71963 12.77511,12.77513c0,7.05551 -5.71962,12.77512 -12.77511,12.77512c-7.05551,0 -12.77512,-5.71963 -12.77512,-12.77512c0,-7.05551 5.71962,-12.77513 12.77512,-12.77513z"/><path d="M253.06443,167.22492c7.05551,0 12.77511,5.71963 12.77511,12.77513c0,7.05551 -5.71962,12.77512 -12.77511,12.77512c-7.05551,0 -12.77512,-5.71963 -12.77512,-12.77512c0,-7.05551 5.71962,-12.77513 12.77512,-12.77513z"/><path d="M226.93558,167.22492c7.05551,0 12.7751,5.71963 12.7751,12.77513c0,7.05551 -5.71961,12.77512 -12.7751,12.77512c-7.05551,0 -12.77513,-5.71963 -12.77513,-12.77512c0,-7.05551 5.71963,-12.77513 12.77513,-12.77513z"/><path d="M226.93558,167.22492c7.05551,0 12.7751,5.71963 12.7751,12.77513c0,7.05551 -5.71961,12.77512 -12.7751,12.77512c-7.05551,0 -12.77513,-5.71963 -12.77513,-12.77512c0,-7.05551 5.71963,-12.77513 12.77513,-12.77513z"/></g><g><path d="M252.77512,193.06452c0,7.05551 -5.71962,12.7751 -12.77512,12.7751c-7.05551,0 -12.77512,-5.71961 -12.77512,-12.7751c0,-7.05551 5.71963,-12.77512 12.77512,-12.77512c7.05551,0 12.77512,5.71963 12.77512,12.77512z"/><path d="M252.77512,193.06452c0,7.05551 -5.71962,12.7751 -12.77512,12.7751c-7.05551,0 -12.77512,-5.71961 -12.77512,-12.7751c0,-7.05551 5.71963,-12.77512 12.77512,-12.77512c7.05551,0 12.77512,5.71963 12.77512,12.77512z"/><path d="M252.77512,166.93563c0,7.05551 -5.71963,12.7751 -12.77512,12.7751c-7.05551,0 -12.77513,-5.71961 -12.77513,-12.7751c0,-7.05551 5.71963,-12.77513 12.77513,-12.77513c7.05551,0 12.77512,5.71963 12.77512,12.77513z"/><path d="M252.77512,166.93563c0,7.05551 -5.71963,12.7751 -12.77512,12.7751c-7.05551,0 -12.77513,-5.71961 -12.77513,-12.7751c0,-7.05551 5.71963,-12.77513 12.77513,-12.77513c7.05551,0 12.77512,5.71963 12.77512,12.77513z"/></g></g><path d="M274.64557,223.86076v-9.17722h9.17722v9.17722z" fill="none" stroke="none" stroke-width="0"/></g></g></svg>